<mxfile host="app.diagrams.net" modified="2024-04-19T07:09:56.856Z" agent="Mozilla/5.0 (Windows NT 10.0; Win64; x64) AppleWebKit/537.36 (KHTML, like Gecko) Chrome/123.0.0.0 Safari/537.36 Edg/123.0.0.0" version="24.2.5" etag="UWq2NoVznidakGIu43If" type="github">
  <diagram name="Strona-1" id="WvKOBXzneyLtSIr5-8d4">
    <mxGraphModel>
      <root>
        <mxCell id="0" />
        <mxCell id="1" parent="0" />
      </root>
    </mxGraphModel>
  </diagram>
</mxfile>
